<?xml version="1.0" standalone="no"?><!DOCTYPE svg PUBLIC "-//W3C//DTD SVG 1.1//EN" "http://www.w3.org/Graphics/SVG/1.1/DTD/svg11.dtd"><svg t="1522647252040" class="icon" style="" viewBox="0 0 1025 1024" version="1.1" xmlns="http://www.w3.org/2000/svg" p-id="4669" xmlns:xlink="http://www.w3.org/1999/xlink" width="64.0625" height="64"><defs><style type="text/css">@font-face { font-family: rbicon; src: url("chrome-extension://dipiagiiohfljcicegpgffpbnjmgjcnf/fonts/rbicon.woff2") format("woff2"); font-weight: 400; font-style: normal; }
</style></defs><path d="M895.531061 485.788536 535.640488 485.788536 535.640488 125.897963c0-13.5716-11.001648-24.573248-24.573248-24.573248s-24.573248 11.001648-24.573248 24.573248l0 359.890572L126.604444 485.788536c-13.5716 0-24.573248 11.001648-24.573248 24.573248s11.001648 24.573248 24.573248 24.573248l359.889548 0 0 359.890572c0 13.5716 11.001648 24.573248 24.573248 24.573248s24.573248-11.001648 24.573248-24.573248L535.640488 534.934007l359.890572 0c13.5716 0 24.573248-11.001648 24.573248-24.573248S909.102661 485.788536 895.531061 485.788536z" p-id="4670"></path></svg>