<?xml version="1.0" standalone="no"?><!DOCTYPE svg PUBLIC "-//W3C//DTD SVG 1.1//EN" "http://www.w3.org/Graphics/SVG/1.1/DTD/svg11.dtd"><svg t="1522647234745" class="icon" style="" viewBox="0 0 1024 1024" version="1.1" xmlns="http://www.w3.org/2000/svg" p-id="4554" xmlns:xlink="http://www.w3.org/1999/xlink" width="64" height="64"><defs><style type="text/css">@font-face { font-family: rbicon; src: url("chrome-extension://dipiagiiohfljcicegpgffpbnjmgjcnf/fonts/rbicon.woff2") format("woff2"); font-weight: 400; font-style: normal; }
</style></defs><path d="M768 416v448a32 32 0 0 1-32 32H288a32 32 0 0 1-32-32V416a32 32 0 0 0-64 0v448a96.11 96.11 0 0 0 96 96h448a96.11 96.11 0 0 0 96-96V416a32 32 0 0 0-64 0z" p-id="4555"></path><path d="M864 192H672v-32a96.11 96.11 0 0 0-96-96H448a96.11 96.11 0 0 0-96 96v32H160a96 96 0 0 0 0 192h704a96 96 0 0 0 0-192z m-448-32a32 32 0 0 1 32-32h128a32 32 0 0 1 32 32v32H416v-32z m448 160H160a32 32 0 0 1 0-64h704a32 32 0 0 1 0 64zM352 800a32 32 0 0 0 32-32V512a32 32 0 0 0-64 0v256a32 32 0 0 0 32 32zM672 800a32 32 0 0 0 32-32V512a32 32 0 0 0-64 0v256a32 32 0 0 0 32 32zM512 800a32 32 0 0 0 32-32V512a32 32 0 0 0-64 0v256a32 32 0 0 0 32 32z" p-id="4556"></path></svg>